<svg width="311" height="48" viewBox="0 0 311 48" fill="none" xmlns="http://www.w3.org/2000/svg">
<g clip-path="url(#clip0_204_779)">
<rect width="311" height="48" rx="12" fill="#E0E0FF" fill-opacity="0.04"/>
<path d="M94.688 30.16C93.8347 30.16 93.04 30.0213 92.304 29.744C91.5787 29.456 90.944 29.056 90.4 28.544C89.8667 28.0213 89.4507 27.408 89.152 26.704C88.8533 26 88.704 25.232 88.704 24.4C88.704 23.568 88.8533 22.8 89.152 22.096C89.4507 21.392 89.872 20.784 90.416 20.272C90.96 19.7493 91.5947 19.3493 92.32 19.072C93.0453 18.784 93.84 18.64 94.704 18.64C95.6213 18.64 96.4587 18.8 97.216 19.12C97.9733 19.4293 98.6133 19.8933 99.136 20.512L97.792 21.776C97.3867 21.3387 96.9333 21.0133 96.432 20.8C95.9307 20.576 95.3867 20.464 94.8 20.464C94.2133 20.464 93.6747 20.56 93.184 20.752C92.704 20.944 92.2827 21.216 91.92 21.568C91.568 21.92 91.2907 22.336 91.088 22.816C90.896 23.296 90.8 23.824 90.8 24.4C90.8 24.976 90.896 25.504 91.088 25.984C91.2907 26.464 91.568 26.88 91.92 27.232C92.2827 27.584 92.704 27.856 93.184 28.048C93.6747 28.24 94.2133 28.336 94.8 28.336C95.3867 28.336 95.9307 28.2293 96.432 28.016C96.9333 27.792 97.3867 27.456 97.792 27.008L99.136 28.288C98.6133 28.896 97.9733 29.36 97.216 29.68C96.4587 30 95.616 30.16 94.688 30.16ZM104.449 30.112C103.574 30.112 102.796 29.9253 102.113 29.552C101.43 29.168 100.892 28.6453 100.497 27.984C100.102 27.3227 99.9049 26.5707 99.9049 25.728C99.9049 24.8747 100.102 24.1227 100.497 23.472C100.892 22.8107 101.43 22.2933 102.113 21.92C102.796 21.5467 103.574 21.36 104.449 21.36C105.334 21.36 106.118 21.5467 106.801 21.92C107.494 22.2933 108.033 22.8053 108.417 23.456C108.812 24.1067 109.009 24.864 109.009 25.728C109.009 26.5707 108.812 27.3227 108.417 27.984C108.033 28.6453 107.494 29.168 106.801 29.552C106.118 29.9253 105.334 30.112 104.449 30.112ZM104.449 28.4C104.94 28.4 105.377 28.2933 105.761 28.08C106.145 27.8667 106.444 27.5573 106.657 27.152C106.881 26.7467 106.993 26.272 106.993 25.728C106.993 25.1733 106.881 24.6987 106.657 24.304C106.444 23.8987 106.145 23.5893 105.761 23.376C105.377 23.1627 104.945 23.056 104.465 23.056C103.974 23.056 103.537 23.1627 103.153 23.376C102.78 23.5893 102.481 23.8987 102.257 24.304C102.033 24.6987 101.921 25.1733 101.921 25.728C101.921 26.272 102.033 26.7467 102.257 27.152C102.481 27.5573 102.78 27.8667 103.153 28.08C103.537 28.2933 103.969 28.4 104.449 28.4ZM115.769 21.36C116.452 21.36 117.06 21.4933 117.593 21.76C118.137 22.0267 118.564 22.4373 118.873 22.992C119.183 23.536 119.337 24.24 119.337 25.104V30H117.337V25.36C117.337 24.6027 117.156 24.0373 116.793 23.664C116.441 23.2907 115.945 23.104 115.305 23.104C114.836 23.104 114.42 23.2 114.057 23.392C113.695 23.584 113.412 23.872 113.209 24.256C113.017 24.6293 112.921 25.104 112.921 25.68V30H110.921V21.456H112.825V23.76L112.489 23.056C112.788 22.512 113.22 22.096 113.785 21.808C114.361 21.5093 115.023 21.36 115.769 21.36ZM125.091 30.112C124.152 30.112 123.427 29.872 122.914 29.392C122.403 28.9013 122.147 28.1813 122.147 27.232V19.568H124.147V27.184C124.147 27.5893 124.248 27.904 124.451 28.128C124.664 28.352 124.957 28.464 125.331 28.464C125.779 28.464 126.152 28.3467 126.451 28.112L127.011 29.536C126.776 29.728 126.488 29.872 126.147 29.968C125.805 30.064 125.453 30.112 125.091 30.112ZM120.739 23.12V21.52H126.435V23.12H120.739ZM128.656 30V21.456H130.656V30H128.656ZM129.664 20.048C129.29 20.048 128.981 19.9307 128.736 19.696C128.501 19.4613 128.384 19.1787 128.384 18.848C128.384 18.5067 128.501 18.224 128.736 18C128.981 17.7653 129.29 17.648 129.664 17.648C130.037 17.648 130.341 17.76 130.576 17.984C130.821 18.1973 130.944 18.4693 130.944 18.8C130.944 19.152 130.826 19.4507 130.592 19.696C130.357 19.9307 130.048 20.048 129.664 20.048ZM138.129 21.36C138.811 21.36 139.419 21.4933 139.953 21.76C140.497 22.0267 140.923 22.4373 141.233 22.992C141.542 23.536 141.697 24.24 141.697 25.104V30H139.697V25.36C139.697 24.6027 139.515 24.0373 139.153 23.664C138.801 23.2907 138.305 23.104 137.665 23.104C137.195 23.104 136.779 23.2 136.417 23.392C136.054 23.584 135.771 23.872 135.569 24.256C135.377 24.6293 135.281 25.104 135.281 25.68V30H133.281V21.456H135.185V23.76L134.849 23.056C135.147 22.512 135.579 22.096 136.145 21.808C136.721 21.5093 137.382 21.36 138.129 21.36ZM147.85 30.112C147.125 30.112 146.485 29.9787 145.93 29.712C145.375 29.4347 144.943 29.0187 144.634 28.464C144.325 27.8987 144.17 27.1893 144.17 26.336V21.456H146.17V26.064C146.17 26.832 146.341 27.408 146.682 27.792C147.034 28.1653 147.53 28.352 148.17 28.352C148.639 28.352 149.045 28.256 149.386 28.064C149.738 27.872 150.01 27.584 150.202 27.2C150.405 26.816 150.506 26.3413 150.506 25.776V21.456H152.506V30H150.602V27.696L150.938 28.4C150.65 28.9547 150.229 29.3813 149.674 29.68C149.119 29.968 148.511 30.112 147.85 30.112ZM159.141 30.112C158.191 30.112 157.359 29.9253 156.645 29.552C155.941 29.168 155.391 28.6453 154.997 27.984C154.613 27.3227 154.421 26.5707 154.421 25.728C154.421 24.8747 154.607 24.1227 154.981 23.472C155.365 22.8107 155.887 22.2933 156.549 21.92C157.221 21.5467 157.983 21.36 158.837 21.36C159.669 21.36 160.41 21.5413 161.061 21.904C161.711 22.2667 162.223 22.7787 162.597 23.44C162.97 24.1013 163.157 24.88 163.157 25.776C163.157 25.8613 163.151 25.9573 163.141 26.064C163.141 26.1707 163.135 26.272 163.125 26.368H156.005V25.04H162.069L161.285 25.456C161.295 24.9653 161.194 24.5333 160.981 24.16C160.767 23.7867 160.474 23.4933 160.101 23.28C159.738 23.0667 159.317 22.96 158.837 22.96C158.346 22.96 157.914 23.0667 157.541 23.28C157.178 23.4933 156.89 23.792 156.677 24.176C156.474 24.5493 156.373 24.992 156.373 25.504V25.824C156.373 26.336 156.49 26.7893 156.725 27.184C156.959 27.5787 157.29 27.8827 157.717 28.096C158.143 28.3093 158.634 28.416 159.189 28.416C159.669 28.416 160.101 28.3413 160.485 28.192C160.869 28.0427 161.21 27.808 161.509 27.488L162.581 28.72C162.197 29.168 161.711 29.5147 161.125 29.76C160.549 29.9947 159.887 30.112 159.141 30.112ZM171.388 30L168.252 21.456H170.14L172.828 28.992H171.932L174.748 21.456H176.428L179.164 28.992H178.284L181.052 21.456H182.828L179.676 30H177.756L175.26 23.328H175.852L173.308 30H171.388ZM184.203 30V21.456H186.203V30H184.203ZM185.211 20.048C184.837 20.048 184.528 19.9307 184.283 19.696C184.048 19.4613 183.931 19.1787 183.931 18.848C183.931 18.5067 184.048 18.224 184.283 18C184.528 17.7653 184.837 17.648 185.211 17.648C185.584 17.648 185.888 17.76 186.123 17.984C186.368 18.1973 186.491 18.4693 186.491 18.8C186.491 19.152 186.373 19.4507 186.139 19.696C185.904 19.9307 185.595 20.048 185.211 20.048ZM192.044 30.112C191.105 30.112 190.38 29.872 189.868 29.392C189.356 28.9013 189.1 28.1813 189.1 27.232V19.568H191.1V27.184C191.1 27.5893 191.201 27.904 191.404 28.128C191.617 28.352 191.91 28.464 192.284 28.464C192.732 28.464 193.105 28.3467 193.404 28.112L193.964 29.536C193.729 29.728 193.441 29.872 193.1 29.968C192.758 30.064 192.406 30.112 192.044 30.112ZM187.692 23.12V21.52H193.388V23.12H187.692ZM200.457 21.36C201.14 21.36 201.748 21.4933 202.281 21.76C202.825 22.0267 203.252 22.4373 203.561 22.992C203.87 23.536 204.025 24.24 204.025 25.104V30H202.025V25.36C202.025 24.6027 201.844 24.0373 201.481 23.664C201.129 23.2907 200.633 23.104 199.993 23.104C199.524 23.104 199.108 23.2 198.745 23.392C198.382 23.584 198.1 23.872 197.897 24.256C197.705 24.6293 197.609 25.104 197.609 25.68V30H195.609V18.128H197.609V23.76L197.177 23.056C197.476 22.512 197.908 22.096 198.473 21.808C199.049 21.5093 199.71 21.36 200.457 21.36ZM209.592 30L214.632 18.8H216.68L221.736 30H219.56L215.224 19.904H216.056L211.736 30H209.592ZM211.912 27.408L212.472 25.776H218.52L219.08 27.408H211.912ZM227.704 30.112C227.011 30.112 226.376 29.952 225.8 29.632C225.235 29.312 224.782 28.832 224.44 28.192C224.11 27.5413 223.944 26.72 223.944 25.728C223.944 24.7253 224.104 23.904 224.424 23.264C224.755 22.624 225.203 22.1493 225.768 21.84C226.334 21.52 226.979 21.36 227.704 21.36C228.547 21.36 229.288 21.5413 229.928 21.904C230.579 22.2667 231.091 22.7733 231.464 23.424C231.848 24.0747 232.04 24.8427 232.04 25.728C232.04 26.6133 231.848 27.3867 231.464 28.048C231.091 28.6987 230.579 29.2053 229.928 29.568C229.288 29.9307 228.547 30.112 227.704 30.112ZM222.968 33.104V21.456H224.872V23.472L224.808 25.744L224.968 28.016V33.104H222.968ZM227.48 28.4C227.96 28.4 228.387 28.2933 228.76 28.08C229.144 27.8667 229.448 27.5573 229.672 27.152C229.896 26.7467 230.008 26.272 230.008 25.728C230.008 25.1733 229.896 24.6987 229.672 24.304C229.448 23.8987 229.144 23.5893 228.76 23.376C228.387 23.1627 227.96 23.056 227.48 23.056C227 23.056 226.568 23.1627 226.184 23.376C225.8 23.5893 225.496 23.8987 225.272 24.304C225.048 24.6987 224.936 25.1733 224.936 25.728C224.936 26.272 225.048 26.7467 225.272 27.152C225.496 27.5573 225.8 27.8667 226.184 28.08C226.568 28.2933 227 28.4 227.48 28.4ZM238.673 30.112C237.98 30.112 237.345 29.952 236.769 29.632C236.204 29.312 235.75 28.832 235.409 28.192C235.078 27.5413 234.913 26.72 234.913 25.728C234.913 24.7253 235.073 23.904 235.393 23.264C235.724 22.624 236.172 22.1493 236.737 21.84C237.302 21.52 237.948 21.36 238.673 21.36C239.516 21.36 240.257 21.5413 240.897 21.904C241.548 22.2667 242.06 22.7733 242.433 23.424C242.817 24.0747 243.009 24.8427 243.009 25.728C243.009 26.6133 242.817 27.3867 242.433 28.048C242.06 28.6987 241.548 29.2053 240.897 29.568C240.257 29.9307 239.516 30.112 238.673 30.112ZM233.937 33.104V21.456H235.841V23.472L235.777 25.744L235.937 28.016V33.104H233.937ZM238.449 28.4C238.929 28.4 239.356 28.2933 239.729 28.08C240.113 27.8667 240.417 27.5573 240.641 27.152C240.865 26.7467 240.977 26.272 240.977 25.728C240.977 25.1733 240.865 24.6987 240.641 24.304C240.417 23.8987 240.113 23.5893 239.729 23.376C239.356 23.1627 238.929 23.056 238.449 23.056C237.969 23.056 237.537 23.1627 237.153 23.376C236.769 23.5893 236.465 23.8987 236.241 24.304C236.017 24.6987 235.905 25.1733 235.905 25.728C235.905 26.272 236.017 26.7467 236.241 27.152C236.465 27.5573 236.769 27.8667 237.153 28.08C237.537 28.2933 237.969 28.4 238.449 28.4ZM244.906 30V18.128H246.906V30H244.906ZM253.547 30.112C252.597 30.112 251.765 29.9253 251.051 29.552C250.347 29.168 249.797 28.6453 249.403 27.984C249.019 27.3227 248.827 26.5707 248.827 25.728C248.827 24.8747 249.013 24.1227 249.387 23.472C249.771 22.8107 250.293 22.2933 250.955 21.92C251.627 21.5467 252.389 21.36 253.243 21.36C254.075 21.36 254.816 21.5413 255.467 21.904C256.117 22.2667 256.629 22.7787 257.003 23.44C257.376 24.1013 257.563 24.88 257.563 25.776C257.563 25.8613 257.557 25.9573 257.547 26.064C257.547 26.1707 257.541 26.272 257.531 26.368H250.411V25.04H256.475L255.691 25.456C255.701 24.9653 255.6 24.5333 255.387 24.16C255.173 23.7867 254.88 23.4933 254.507 23.28C254.144 23.0667 253.723 22.96 253.243 22.96C252.752 22.96 252.32 23.0667 251.947 23.28C251.584 23.4933 251.296 23.792 251.083 24.176C250.88 24.5493 250.779 24.992 250.779 25.504V25.824C250.779 26.336 250.896 26.7893 251.131 27.184C251.365 27.5787 251.696 27.8827 252.123 28.096C252.549 28.3093 253.04 28.416 253.595 28.416C254.075 28.416 254.507 28.3413 254.891 28.192C255.275 28.0427 255.616 27.808 255.915 27.488L256.987 28.72C256.603 29.168 256.117 29.5147 255.531 29.76C254.955 29.9947 254.293 30.112 253.547 30.112Z" fill="white"/>
<path fill-rule="evenodd" clip-rule="evenodd" d="M63.9469 18.6465C65.058 18.7475 66.1691 18.0404 66.8761 17.2323C67.5832 16.3232 67.9873 15.1111 67.8862 14C66.8761 14 65.664 14.6061 64.957 15.5152C64.3509 16.2222 63.7448 17.4343 63.9469 18.6465ZM71.5223 20.8687C70.3101 19.0505 68.492 18.8485 67.8859 18.8485C66.8849 18.7859 65.9613 19.1496 65.2353 19.4356C64.7892 19.6113 64.4176 19.7576 64.1485 19.7576C63.8493 19.7576 63.4596 19.5947 63.01 19.4069C62.3974 19.1509 61.6736 18.8485 60.9162 18.8485C59.3 18.8485 57.6839 19.8586 56.8758 21.3737C55.0576 24.404 56.3708 28.9495 58.0879 31.4747C58.896 32.6869 59.9061 34 61.2192 34C61.7915 34 62.2062 33.8199 62.644 33.6297C63.1334 33.4171 63.6518 33.1919 64.4516 33.1919C65.2362 33.1919 65.7229 33.4086 66.1922 33.6176C66.629 33.8122 67.0508 34 67.6839 34C68.997 34 69.9061 32.7879 70.7142 31.5758C71.6233 30.1616 72.0273 28.8485 72.0273 28.7475C72.0273 28.7475 69.4011 27.7374 69.4011 24.7071C69.4011 22.4196 71.0588 21.2096 71.446 20.9269C71.4862 20.8976 71.5128 20.8782 71.5223 20.8687Z" fill="white"/>
</g>
<defs>
<clipPath id="clip0_204_779">
<rect width="311" height="48" fill="white"/>
</clipPath>
</defs>
</svg>
