<svg width="24" height="24" viewBox="0 0 10 10" fill="none" xmlns="http://www.w3.org/2000/svg">
<path d="M9.55664 9.58973C9.85547 9.28504 9.85547 8.78699 9.5625 8.49402L6.09961 5.03113L9.5625 1.56238C9.85547 1.26941 9.86133 0.765508 9.55664 0.46668C9.25781 0.167852 8.75391 0.167852 8.46094 0.460821L4.99805 3.92371L1.5293 0.460821C1.24805 0.173712 0.732422 0.161993 0.433594 0.46668C0.134766 0.765508 0.140625 1.28113 0.427734 1.56238L3.89062 5.03113L0.427734 8.49402C0.140625 8.78113 0.134766 9.2909 0.433594 9.58973C0.738281 9.88855 1.24805 9.8827 1.5293 9.60145L4.99805 6.1327L8.46094 9.59559C8.75391 9.88855 9.25781 9.88855 9.55664 9.58973Z" fill="#E0E0FF" fill-opacity="0.4"/>
</svg>
