<svg width="311" height="48" viewBox="0 0 311 48" fill="none" xmlns="http://www.w3.org/2000/svg">
<g clip-path="url(#clip0_204_769)">
<rect width="311" height="48" rx="12" fill="#E0E0FF" fill-opacity="0.04"/>
<path d="M89.688 30.16C88.8347 30.16 88.04 30.0213 87.304 29.744C86.5787 29.456 85.944 29.056 85.4 28.544C84.8667 28.0213 84.4507 27.408 84.152 26.704C83.8533 26 83.704 25.232 83.704 24.4C83.704 23.568 83.8533 22.8 84.152 22.096C84.4507 21.392 84.872 20.784 85.416 20.272C85.96 19.7493 86.5947 19.3493 87.32 19.072C88.0453 18.784 88.84 18.64 89.704 18.64C90.6213 18.64 91.4587 18.8 92.216 19.12C92.9733 19.4293 93.6133 19.8933 94.136 20.512L92.792 21.776C92.3867 21.3387 91.9333 21.0133 91.432 20.8C90.9307 20.576 90.3867 20.464 89.8 20.464C89.2133 20.464 88.6747 20.56 88.184 20.752C87.704 20.944 87.2827 21.216 86.92 21.568C86.568 21.92 86.2907 22.336 86.088 22.816C85.896 23.296 85.8 23.824 85.8 24.4C85.8 24.976 85.896 25.504 86.088 25.984C86.2907 26.464 86.568 26.88 86.92 27.232C87.2827 27.584 87.704 27.856 88.184 28.048C88.6747 28.24 89.2133 28.336 89.8 28.336C90.3867 28.336 90.9307 28.2293 91.432 28.016C91.9333 27.792 92.3867 27.456 92.792 27.008L94.136 28.288C93.6133 28.896 92.9733 29.36 92.216 29.68C91.4587 30 90.616 30.16 89.688 30.16ZM99.4489 30.112C98.5742 30.112 97.7955 29.9253 97.1129 29.552C96.4302 29.168 95.8915 28.6453 95.4969 27.984C95.1022 27.3227 94.9049 26.5707 94.9049 25.728C94.9049 24.8747 95.1022 24.1227 95.4969 23.472C95.8915 22.8107 96.4302 22.2933 97.1129 21.92C97.7955 21.5467 98.5742 21.36 99.4489 21.36C100.334 21.36 101.118 21.5467 101.801 21.92C102.494 22.2933 103.033 22.8053 103.417 23.456C103.812 24.1067 104.009 24.864 104.009 25.728C104.009 26.5707 103.812 27.3227 103.417 27.984C103.033 28.6453 102.494 29.168 101.801 29.552C101.118 29.9253 100.334 30.112 99.4489 30.112ZM99.4489 28.4C99.9395 28.4 100.377 28.2933 100.761 28.08C101.145 27.8667 101.444 27.5573 101.657 27.152C101.881 26.7467 101.993 26.272 101.993 25.728C101.993 25.1733 101.881 24.6987 101.657 24.304C101.444 23.8987 101.145 23.5893 100.761 23.376C100.377 23.1627 99.9449 23.056 99.4649 23.056C98.9742 23.056 98.5369 23.1627 98.1529 23.376C97.7795 23.5893 97.4809 23.8987 97.2569 24.304C97.0329 24.6987 96.9209 25.1733 96.9209 25.728C96.9209 26.272 97.0329 26.7467 97.2569 27.152C97.4809 27.5573 97.7795 27.8667 98.1529 28.08C98.5369 28.2933 98.9689 28.4 99.4489 28.4ZM110.769 21.36C111.452 21.36 112.06 21.4933 112.593 21.76C113.137 22.0267 113.564 22.4373 113.873 22.992C114.183 23.536 114.337 24.24 114.337 25.104V30H112.337V25.36C112.337 24.6027 112.156 24.0373 111.793 23.664C111.441 23.2907 110.945 23.104 110.305 23.104C109.836 23.104 109.42 23.2 109.057 23.392C108.695 23.584 108.412 23.872 108.209 24.256C108.017 24.6293 107.921 25.104 107.921 25.68V30H105.921V21.456H107.825V23.76L107.489 23.056C107.788 22.512 108.22 22.096 108.785 21.808C109.361 21.5093 110.023 21.36 110.769 21.36ZM120.091 30.112C119.152 30.112 118.427 29.872 117.914 29.392C117.403 28.9013 117.147 28.1813 117.147 27.232V19.568H119.147V27.184C119.147 27.5893 119.248 27.904 119.451 28.128C119.664 28.352 119.957 28.464 120.331 28.464C120.779 28.464 121.152 28.3467 121.451 28.112L122.011 29.536C121.776 29.728 121.488 29.872 121.147 29.968C120.805 30.064 120.453 30.112 120.091 30.112ZM115.739 23.12V21.52H121.435V23.12H115.739ZM123.656 30V21.456H125.656V30H123.656ZM124.664 20.048C124.29 20.048 123.981 19.9307 123.736 19.696C123.501 19.4613 123.384 19.1787 123.384 18.848C123.384 18.5067 123.501 18.224 123.736 18C123.981 17.7653 124.29 17.648 124.664 17.648C125.037 17.648 125.341 17.76 125.576 17.984C125.821 18.1973 125.944 18.4693 125.944 18.8C125.944 19.152 125.826 19.4507 125.592 19.696C125.357 19.9307 125.048 20.048 124.664 20.048ZM133.129 21.36C133.811 21.36 134.419 21.4933 134.953 21.76C135.497 22.0267 135.923 22.4373 136.233 22.992C136.542 23.536 136.697 24.24 136.697 25.104V30H134.697V25.36C134.697 24.6027 134.515 24.0373 134.153 23.664C133.801 23.2907 133.305 23.104 132.665 23.104C132.195 23.104 131.779 23.2 131.417 23.392C131.054 23.584 130.771 23.872 130.569 24.256C130.377 24.6293 130.281 25.104 130.281 25.68V30H128.281V21.456H130.185V23.76L129.849 23.056C130.147 22.512 130.579 22.096 131.145 21.808C131.721 21.5093 132.382 21.36 133.129 21.36ZM142.85 30.112C142.125 30.112 141.485 29.9787 140.93 29.712C140.375 29.4347 139.943 29.0187 139.634 28.464C139.325 27.8987 139.17 27.1893 139.17 26.336V21.456H141.17V26.064C141.17 26.832 141.341 27.408 141.682 27.792C142.034 28.1653 142.53 28.352 143.17 28.352C143.639 28.352 144.045 28.256 144.386 28.064C144.738 27.872 145.01 27.584 145.202 27.2C145.405 26.816 145.506 26.3413 145.506 25.776V21.456H147.506V30H145.602V27.696L145.938 28.4C145.65 28.9547 145.229 29.3813 144.674 29.68C144.119 29.968 143.511 30.112 142.85 30.112ZM154.141 30.112C153.191 30.112 152.359 29.9253 151.645 29.552C150.941 29.168 150.391 28.6453 149.997 27.984C149.613 27.3227 149.421 26.5707 149.421 25.728C149.421 24.8747 149.607 24.1227 149.981 23.472C150.365 22.8107 150.887 22.2933 151.549 21.92C152.221 21.5467 152.983 21.36 153.837 21.36C154.669 21.36 155.41 21.5413 156.061 21.904C156.711 22.2667 157.223 22.7787 157.597 23.44C157.97 24.1013 158.157 24.88 158.157 25.776C158.157 25.8613 158.151 25.9573 158.141 26.064C158.141 26.1707 158.135 26.272 158.125 26.368H151.005V25.04H157.069L156.285 25.456C156.295 24.9653 156.194 24.5333 155.981 24.16C155.767 23.7867 155.474 23.4933 155.101 23.28C154.738 23.0667 154.317 22.96 153.837 22.96C153.346 22.96 152.914 23.0667 152.541 23.28C152.178 23.4933 151.89 23.792 151.677 24.176C151.474 24.5493 151.373 24.992 151.373 25.504V25.824C151.373 26.336 151.49 26.7893 151.725 27.184C151.959 27.5787 152.29 27.8827 152.717 28.096C153.143 28.3093 153.634 28.416 154.189 28.416C154.669 28.416 155.101 28.3413 155.485 28.192C155.869 28.0427 156.21 27.808 156.509 27.488L157.581 28.72C157.197 29.168 156.711 29.5147 156.125 29.76C155.549 29.9947 154.887 30.112 154.141 30.112ZM166.388 30L163.252 21.456H165.14L167.828 28.992H166.932L169.748 21.456H171.428L174.164 28.992H173.284L176.052 21.456H177.828L174.676 30H172.756L170.26 23.328H170.852L168.308 30H166.388ZM179.203 30V21.456H181.203V30H179.203ZM180.211 20.048C179.837 20.048 179.528 19.9307 179.283 19.696C179.048 19.4613 178.931 19.1787 178.931 18.848C178.931 18.5067 179.048 18.224 179.283 18C179.528 17.7653 179.837 17.648 180.211 17.648C180.584 17.648 180.888 17.76 181.123 17.984C181.368 18.1973 181.491 18.4693 181.491 18.8C181.491 19.152 181.373 19.4507 181.139 19.696C180.904 19.9307 180.595 20.048 180.211 20.048ZM187.044 30.112C186.105 30.112 185.38 29.872 184.868 29.392C184.356 28.9013 184.1 28.1813 184.1 27.232V19.568H186.1V27.184C186.1 27.5893 186.201 27.904 186.404 28.128C186.617 28.352 186.91 28.464 187.284 28.464C187.732 28.464 188.105 28.3467 188.404 28.112L188.964 29.536C188.729 29.728 188.441 29.872 188.1 29.968C187.758 30.064 187.406 30.112 187.044 30.112ZM182.692 23.12V21.52H188.388V23.12H182.692ZM195.457 21.36C196.14 21.36 196.748 21.4933 197.281 21.76C197.825 22.0267 198.252 22.4373 198.561 22.992C198.87 23.536 199.025 24.24 199.025 25.104V30H197.025V25.36C197.025 24.6027 196.844 24.0373 196.481 23.664C196.129 23.2907 195.633 23.104 194.993 23.104C194.524 23.104 194.108 23.2 193.745 23.392C193.382 23.584 193.1 23.872 192.897 24.256C192.705 24.6293 192.609 25.104 192.609 25.68V30H190.609V18.128H192.609V23.76L192.177 23.056C192.476 22.512 192.908 22.096 193.473 21.808C194.049 21.5093 194.71 21.36 195.457 21.36ZM211.408 30.16C210.533 30.16 209.728 30.0213 208.992 29.744C208.267 29.456 207.632 29.056 207.088 28.544C206.544 28.0213 206.123 27.408 205.824 26.704C205.525 26 205.376 25.232 205.376 24.4C205.376 23.568 205.525 22.8 205.824 22.096C206.123 21.392 206.544 20.784 207.088 20.272C207.643 19.7493 208.288 19.3493 209.024 19.072C209.76 18.784 210.565 18.64 211.44 18.64C212.389 18.64 213.243 18.7947 214 19.104C214.768 19.4133 215.413 19.8667 215.936 20.464L214.624 21.744C214.187 21.3067 213.712 20.9867 213.2 20.784C212.699 20.5707 212.144 20.464 211.536 20.464C210.949 20.464 210.405 20.56 209.904 20.752C209.403 20.944 208.971 21.216 208.608 21.568C208.245 21.92 207.963 22.336 207.76 22.816C207.568 23.296 207.472 23.824 207.472 24.4C207.472 24.9653 207.568 25.488 207.76 25.968C207.963 26.448 208.245 26.8693 208.608 27.232C208.971 27.584 209.397 27.856 209.888 28.048C210.379 28.24 210.923 28.336 211.52 28.336C212.075 28.336 212.608 28.2507 213.12 28.08C213.643 27.8987 214.139 27.6 214.608 27.184L215.792 28.736C215.205 29.2053 214.523 29.5627 213.744 29.808C212.976 30.0427 212.197 30.16 211.408 30.16ZM213.824 28.464V24.272H215.792V28.736L213.824 28.464ZM222.183 30.112C221.309 30.112 220.53 29.9253 219.847 29.552C219.165 29.168 218.626 28.6453 218.231 27.984C217.837 27.3227 217.639 26.5707 217.639 25.728C217.639 24.8747 217.837 24.1227 218.231 23.472C218.626 22.8107 219.165 22.2933 219.847 21.92C220.53 21.5467 221.309 21.36 222.183 21.36C223.069 21.36 223.853 21.5467 224.535 21.92C225.229 22.2933 225.767 22.8053 226.151 23.456C226.546 24.1067 226.743 24.864 226.743 25.728C226.743 26.5707 226.546 27.3227 226.151 27.984C225.767 28.6453 225.229 29.168 224.535 29.552C223.853 29.9253 223.069 30.112 222.183 30.112ZM222.183 28.4C222.674 28.4 223.111 28.2933 223.495 28.08C223.879 27.8667 224.178 27.5573 224.391 27.152C224.615 26.7467 224.727 26.272 224.727 25.728C224.727 25.1733 224.615 24.6987 224.391 24.304C224.178 23.8987 223.879 23.5893 223.495 23.376C223.111 23.1627 222.679 23.056 222.199 23.056C221.709 23.056 221.271 23.1627 220.887 23.376C220.514 23.5893 220.215 23.8987 219.991 24.304C219.767 24.6987 219.655 25.1733 219.655 25.728C219.655 26.272 219.767 26.7467 219.991 27.152C220.215 27.5573 220.514 27.8667 220.887 28.08C221.271 28.2933 221.703 28.4 222.183 28.4ZM232.496 30.112C231.621 30.112 230.842 29.9253 230.16 29.552C229.477 29.168 228.938 28.6453 228.544 27.984C228.149 27.3227 227.952 26.5707 227.952 25.728C227.952 24.8747 228.149 24.1227 228.544 23.472C228.938 22.8107 229.477 22.2933 230.16 21.92C230.842 21.5467 231.621 21.36 232.496 21.36C233.381 21.36 234.165 21.5467 234.848 21.92C235.541 22.2933 236.08 22.8053 236.464 23.456C236.858 24.1067 237.056 24.864 237.056 25.728C237.056 26.5707 236.858 27.3227 236.464 27.984C236.08 28.6453 235.541 29.168 234.848 29.552C234.165 29.9253 233.381 30.112 232.496 30.112ZM232.496 28.4C232.986 28.4 233.424 28.2933 233.808 28.08C234.192 27.8667 234.49 27.5573 234.704 27.152C234.928 26.7467 235.04 26.272 235.04 25.728C235.04 25.1733 234.928 24.6987 234.704 24.304C234.49 23.8987 234.192 23.5893 233.808 23.376C233.424 23.1627 232.992 23.056 232.512 23.056C232.021 23.056 231.584 23.1627 231.2 23.376C230.826 23.5893 230.528 23.8987 230.304 24.304C230.08 24.6987 229.968 25.1733 229.968 25.728C229.968 26.272 230.08 26.7467 230.304 27.152C230.528 27.5573 230.826 27.8667 231.2 28.08C231.584 28.2933 232.016 28.4 232.496 28.4ZM242.84 33.216C242.051 33.216 241.278 33.1093 240.52 32.896C239.774 32.6933 239.16 32.3947 238.68 32L239.576 30.496C239.95 30.8053 240.419 31.0507 240.984 31.232C241.56 31.424 242.142 31.52 242.728 31.52C243.667 31.52 244.355 31.3013 244.792 30.864C245.23 30.4373 245.448 29.792 245.448 28.928V27.408L245.608 25.472L245.544 23.536V21.456H247.448V28.704C247.448 30.2507 247.054 31.3867 246.264 32.112C245.475 32.848 244.334 33.216 242.84 33.216ZM242.584 29.616C241.774 29.616 241.038 29.4453 240.376 29.104C239.726 28.752 239.208 28.2667 238.824 27.648C238.451 27.0293 238.264 26.304 238.264 25.472C238.264 24.6507 238.451 23.9307 238.824 23.312C239.208 22.6933 239.726 22.2133 240.376 21.872C241.038 21.5307 241.774 21.36 242.584 21.36C243.31 21.36 243.96 21.504 244.536 21.792C245.112 22.08 245.571 22.528 245.912 23.136C246.264 23.744 246.44 24.5227 246.44 25.472C246.44 26.4213 246.264 27.2053 245.912 27.824C245.571 28.432 245.112 28.8853 244.536 29.184C243.96 29.472 243.31 29.616 242.584 29.616ZM242.888 27.92C243.39 27.92 243.838 27.8187 244.232 27.616C244.627 27.4027 244.931 27.1147 245.144 26.752C245.368 26.3787 245.48 25.952 245.48 25.472C245.48 24.992 245.368 24.5707 245.144 24.208C244.931 23.8347 244.627 23.552 244.232 23.36C243.838 23.1573 243.39 23.056 242.888 23.056C242.387 23.056 241.934 23.1573 241.528 23.36C241.134 23.552 240.824 23.8347 240.6 24.208C240.387 24.5707 240.28 24.992 240.28 25.472C240.28 25.952 240.387 26.3787 240.6 26.752C240.824 27.1147 241.134 27.4027 241.528 27.616C241.934 27.8187 242.387 27.92 242.888 27.92ZM250.078 30V18.128H252.078V30H250.078ZM258.719 30.112C257.769 30.112 256.937 29.9253 256.223 29.552C255.519 29.168 254.969 28.6453 254.575 27.984C254.191 27.3227 253.999 26.5707 253.999 25.728C253.999 24.8747 254.185 24.1227 254.559 23.472C254.943 22.8107 255.465 22.2933 256.127 21.92C256.799 21.5467 257.561 21.36 258.415 21.36C259.247 21.36 259.988 21.5413 260.639 21.904C261.289 22.2667 261.801 22.7787 262.175 23.44C262.548 24.1013 262.735 24.88 262.735 25.776C262.735 25.8613 262.729 25.9573 262.719 26.064C262.719 26.1707 262.713 26.272 262.703 26.368H255.583V25.04H261.647L260.863 25.456C260.873 24.9653 260.772 24.5333 260.559 24.16C260.345 23.7867 260.052 23.4933 259.679 23.28C259.316 23.0667 258.895 22.96 258.415 22.96C257.924 22.96 257.492 23.0667 257.119 23.28C256.756 23.4933 256.468 23.792 256.255 24.176C256.052 24.5493 255.951 24.992 255.951 25.504V25.824C255.951 26.336 256.068 26.7893 256.303 27.184C256.537 27.5787 256.868 27.8827 257.295 28.096C257.721 28.3093 258.212 28.416 258.767 28.416C259.247 28.416 259.679 28.3413 260.063 28.192C260.447 28.0427 260.788 27.808 261.087 27.488L262.159 28.72C261.775 29.168 261.289 29.5147 260.703 29.76C260.127 29.9947 259.465 30.112 258.719 30.112Z" fill="white"/>
<path d="M68.9938 24.4469C68.9938 23.7743 68.9342 23.1357 68.8321 22.5142H59.2109V26.3541H64.7197C64.4728 27.6142 63.749 28.6785 62.6762 29.4022V31.9565H65.9627C67.887 30.177 68.9938 27.5546 68.9938 24.4469Z" fill="#4285F4"/>
<path d="M59.2125 34.4343C61.9711 34.4343 64.2785 33.5148 65.9643 31.9567L62.6778 29.4024C61.7583 30.0154 60.5918 30.3901 59.2125 30.3901C56.5476 30.3901 54.2913 28.5936 53.4824 26.167H50.0938V28.7979C51.7711 32.1355 55.2193 34.4343 59.2125 34.4343Z" fill="#34A853"/>
<path d="M53.4909 26.1669C53.2781 25.5539 53.1674 24.8983 53.1674 24.2171C53.1674 23.536 53.2866 22.8804 53.4909 22.2674V19.6365H50.1022C49.4041 21.0158 49.0039 22.5654 49.0039 24.2171C49.0039 25.8689 49.4041 27.4185 50.1022 28.7978L53.4909 26.1669Z" fill="#FBBC05"/>
<path d="M59.2125 18.0443C60.7196 18.0443 62.0648 18.5636 63.1291 19.5768L66.041 16.665C64.2785 15.0132 61.9711 14 59.2125 14C55.2193 14 51.7711 16.2989 50.0938 19.6364L53.4824 22.2673C54.2913 19.8408 56.5476 18.0443 59.2125 18.0443Z" fill="#EA4335"/>
</g>
<defs>
<clipPath id="clip0_204_769">
<rect width="311" height="48" fill="white"/>
</clipPath>
</defs>
</svg>
