<svg width="311" height="48" viewBox="0 0 311 48" fill="none" xmlns="http://www.w3.org/2000/svg">
<g clip-path="url(#clip0_204_787)">
<rect width="311" height="48" rx="12" fill="#E0E0FF" fill-opacity="0.04"/>
<path d="M80.688 30.16C79.8347 30.16 79.04 30.0213 78.304 29.744C77.5787 29.456 76.944 29.056 76.4 28.544C75.8667 28.0213 75.4507 27.408 75.152 26.704C74.8533 26 74.704 25.232 74.704 24.4C74.704 23.568 74.8533 22.8 75.152 22.096C75.4507 21.392 75.872 20.784 76.416 20.272C76.96 19.7493 77.5947 19.3493 78.32 19.072C79.0453 18.784 79.84 18.64 80.704 18.64C81.6213 18.64 82.4587 18.8 83.216 19.12C83.9733 19.4293 84.6133 19.8933 85.136 20.512L83.792 21.776C83.3867 21.3387 82.9333 21.0133 82.432 20.8C81.9307 20.576 81.3867 20.464 80.8 20.464C80.2133 20.464 79.6747 20.56 79.184 20.752C78.704 20.944 78.2827 21.216 77.92 21.568C77.568 21.92 77.2907 22.336 77.088 22.816C76.896 23.296 76.8 23.824 76.8 24.4C76.8 24.976 76.896 25.504 77.088 25.984C77.2907 26.464 77.568 26.88 77.92 27.232C78.2827 27.584 78.704 27.856 79.184 28.048C79.6747 28.24 80.2133 28.336 80.8 28.336C81.3867 28.336 81.9307 28.2293 82.432 28.016C82.9333 27.792 83.3867 27.456 83.792 27.008L85.136 28.288C84.6133 28.896 83.9733 29.36 83.216 29.68C82.4587 30 81.616 30.16 80.688 30.16ZM90.4489 30.112C89.5742 30.112 88.7955 29.9253 88.1129 29.552C87.4302 29.168 86.8915 28.6453 86.4969 27.984C86.1022 27.3227 85.9049 26.5707 85.9049 25.728C85.9049 24.8747 86.1022 24.1227 86.4969 23.472C86.8915 22.8107 87.4302 22.2933 88.1129 21.92C88.7955 21.5467 89.5742 21.36 90.4489 21.36C91.3342 21.36 92.1182 21.5467 92.8009 21.92C93.4942 22.2933 94.0329 22.8053 94.4169 23.456C94.8115 24.1067 95.0089 24.864 95.0089 25.728C95.0089 26.5707 94.8115 27.3227 94.4169 27.984C94.0329 28.6453 93.4942 29.168 92.8009 29.552C92.1182 29.9253 91.3342 30.112 90.4489 30.112ZM90.4489 28.4C90.9395 28.4 91.3769 28.2933 91.7609 28.08C92.1449 27.8667 92.4435 27.5573 92.6569 27.152C92.8809 26.7467 92.9929 26.272 92.9929 25.728C92.9929 25.1733 92.8809 24.6987 92.6569 24.304C92.4435 23.8987 92.1449 23.5893 91.7609 23.376C91.3769 23.1627 90.9449 23.056 90.4649 23.056C89.9742 23.056 89.5369 23.1627 89.1529 23.376C88.7795 23.5893 88.4809 23.8987 88.2569 24.304C88.0329 24.6987 87.9209 25.1733 87.9209 25.728C87.9209 26.272 88.0329 26.7467 88.2569 27.152C88.4809 27.5573 88.7795 27.8667 89.1529 28.08C89.5369 28.2933 89.9689 28.4 90.4489 28.4ZM101.769 21.36C102.452 21.36 103.06 21.4933 103.593 21.76C104.137 22.0267 104.564 22.4373 104.873 22.992C105.183 23.536 105.337 24.24 105.337 25.104V30H103.337V25.36C103.337 24.6027 103.156 24.0373 102.793 23.664C102.441 23.2907 101.945 23.104 101.305 23.104C100.836 23.104 100.42 23.2 100.057 23.392C99.6947 23.584 99.412 23.872 99.2094 24.256C99.0174 24.6293 98.9214 25.104 98.9214 25.68V30H96.9214V21.456H98.8254V23.76L98.4894 23.056C98.788 22.512 99.22 22.096 99.7854 21.808C100.361 21.5093 101.023 21.36 101.769 21.36ZM111.091 30.112C110.152 30.112 109.427 29.872 108.914 29.392C108.403 28.9013 108.147 28.1813 108.147 27.232V19.568H110.147V27.184C110.147 27.5893 110.248 27.904 110.451 28.128C110.664 28.352 110.957 28.464 111.331 28.464C111.779 28.464 112.152 28.3467 112.451 28.112L113.011 29.536C112.776 29.728 112.488 29.872 112.147 29.968C111.805 30.064 111.453 30.112 111.091 30.112ZM106.739 23.12V21.52H112.435V23.12H106.739ZM114.656 30V21.456H116.656V30H114.656ZM115.664 20.048C115.29 20.048 114.981 19.9307 114.736 19.696C114.501 19.4613 114.384 19.1787 114.384 18.848C114.384 18.5067 114.501 18.224 114.736 18C114.981 17.7653 115.29 17.648 115.664 17.648C116.037 17.648 116.341 17.76 116.576 17.984C116.821 18.1973 116.944 18.4693 116.944 18.8C116.944 19.152 116.826 19.4507 116.592 19.696C116.357 19.9307 116.048 20.048 115.664 20.048ZM124.129 21.36C124.811 21.36 125.419 21.4933 125.953 21.76C126.497 22.0267 126.923 22.4373 127.233 22.992C127.542 23.536 127.697 24.24 127.697 25.104V30H125.697V25.36C125.697 24.6027 125.515 24.0373 125.153 23.664C124.801 23.2907 124.305 23.104 123.665 23.104C123.195 23.104 122.779 23.2 122.417 23.392C122.054 23.584 121.771 23.872 121.569 24.256C121.377 24.6293 121.281 25.104 121.281 25.68V30H119.281V21.456H121.185V23.76L120.849 23.056C121.147 22.512 121.579 22.096 122.145 21.808C122.721 21.5093 123.382 21.36 124.129 21.36ZM133.85 30.112C133.125 30.112 132.485 29.9787 131.93 29.712C131.375 29.4347 130.943 29.0187 130.634 28.464C130.325 27.8987 130.17 27.1893 130.17 26.336V21.456H132.17V26.064C132.17 26.832 132.341 27.408 132.682 27.792C133.034 28.1653 133.53 28.352 134.17 28.352C134.639 28.352 135.045 28.256 135.386 28.064C135.738 27.872 136.01 27.584 136.202 27.2C136.405 26.816 136.506 26.3413 136.506 25.776V21.456H138.506V30H136.602V27.696L136.938 28.4C136.65 28.9547 136.229 29.3813 135.674 29.68C135.119 29.968 134.511 30.112 133.85 30.112ZM145.141 30.112C144.191 30.112 143.359 29.9253 142.645 29.552C141.941 29.168 141.391 28.6453 140.997 27.984C140.613 27.3227 140.421 26.5707 140.421 25.728C140.421 24.8747 140.607 24.1227 140.981 23.472C141.365 22.8107 141.887 22.2933 142.549 21.92C143.221 21.5467 143.983 21.36 144.837 21.36C145.669 21.36 146.41 21.5413 147.061 21.904C147.711 22.2667 148.223 22.7787 148.597 23.44C148.97 24.1013 149.157 24.88 149.157 25.776C149.157 25.8613 149.151 25.9573 149.141 26.064C149.141 26.1707 149.135 26.272 149.125 26.368H142.005V25.04H148.069L147.285 25.456C147.295 24.9653 147.194 24.5333 146.981 24.16C146.767 23.7867 146.474 23.4933 146.101 23.28C145.738 23.0667 145.317 22.96 144.837 22.96C144.346 22.96 143.914 23.0667 143.541 23.28C143.178 23.4933 142.89 23.792 142.677 24.176C142.474 24.5493 142.373 24.992 142.373 25.504V25.824C142.373 26.336 142.49 26.7893 142.725 27.184C142.959 27.5787 143.29 27.8827 143.717 28.096C144.143 28.3093 144.634 28.416 145.189 28.416C145.669 28.416 146.101 28.3413 146.485 28.192C146.869 28.0427 147.21 27.808 147.509 27.488L148.581 28.72C148.197 29.168 147.711 29.5147 147.125 29.76C146.549 29.9947 145.887 30.112 145.141 30.112ZM157.388 30L154.252 21.456H156.14L158.828 28.992H157.932L160.748 21.456H162.428L165.164 28.992H164.284L167.052 21.456H168.828L165.676 30H163.756L161.26 23.328H161.852L159.308 30H157.388ZM170.203 30V21.456H172.203V30H170.203ZM171.211 20.048C170.837 20.048 170.528 19.9307 170.283 19.696C170.048 19.4613 169.931 19.1787 169.931 18.848C169.931 18.5067 170.048 18.224 170.283 18C170.528 17.7653 170.837 17.648 171.211 17.648C171.584 17.648 171.888 17.76 172.123 17.984C172.368 18.1973 172.491 18.4693 172.491 18.8C172.491 19.152 172.373 19.4507 172.139 19.696C171.904 19.9307 171.595 20.048 171.211 20.048ZM178.044 30.112C177.105 30.112 176.38 29.872 175.868 29.392C175.356 28.9013 175.1 28.1813 175.1 27.232V19.568H177.1V27.184C177.1 27.5893 177.201 27.904 177.404 28.128C177.617 28.352 177.91 28.464 178.284 28.464C178.732 28.464 179.105 28.3467 179.404 28.112L179.964 29.536C179.729 29.728 179.441 29.872 179.1 29.968C178.758 30.064 178.406 30.112 178.044 30.112ZM173.692 23.12V21.52H179.388V23.12H173.692ZM186.457 21.36C187.14 21.36 187.748 21.4933 188.281 21.76C188.825 22.0267 189.252 22.4373 189.561 22.992C189.87 23.536 190.025 24.24 190.025 25.104V30H188.025V25.36C188.025 24.6027 187.844 24.0373 187.481 23.664C187.129 23.2907 186.633 23.104 185.993 23.104C185.524 23.104 185.108 23.2 184.745 23.392C184.382 23.584 184.1 23.872 183.897 24.256C183.705 24.6293 183.609 25.104 183.609 25.68V30H181.609V18.128H183.609V23.76L183.177 23.056C183.476 22.512 183.908 22.096 184.473 21.808C185.049 21.5093 185.71 21.36 186.457 21.36ZM197.176 30V18.8H198.888L203.784 26.976H202.888L207.704 18.8H209.416L209.432 30H207.464L207.448 21.888H207.864L203.768 28.72H202.84L198.68 21.888H199.16V30H197.176ZM212.265 30V21.456H214.265V30H212.265ZM213.273 20.048C212.9 20.048 212.59 19.9307 212.345 19.696C212.11 19.4613 211.993 19.1787 211.993 18.848C211.993 18.5067 212.11 18.224 212.345 18C212.59 17.7653 212.9 17.648 213.273 17.648C213.646 17.648 213.95 17.76 214.185 17.984C214.43 18.1973 214.553 18.4693 214.553 18.8C214.553 19.152 214.436 19.4507 214.201 19.696C213.966 19.9307 213.657 20.048 213.273 20.048ZM220.81 30.112C219.914 30.112 219.114 29.9253 218.41 29.552C217.717 29.168 217.173 28.6453 216.778 27.984C216.383 27.3227 216.186 26.5707 216.186 25.728C216.186 24.8747 216.383 24.1227 216.778 23.472C217.173 22.8107 217.717 22.2933 218.41 21.92C219.114 21.5467 219.914 21.36 220.81 21.36C221.642 21.36 222.373 21.5307 223.002 21.872C223.642 22.2027 224.127 22.6933 224.458 23.344L222.922 24.24C222.666 23.8347 222.351 23.536 221.978 23.344C221.615 23.152 221.221 23.056 220.794 23.056C220.303 23.056 219.861 23.1627 219.466 23.376C219.071 23.5893 218.762 23.8987 218.538 24.304C218.314 24.6987 218.202 25.1733 218.202 25.728C218.202 26.2827 218.314 26.7627 218.538 27.168C218.762 27.5627 219.071 27.8667 219.466 28.08C219.861 28.2933 220.303 28.4 220.794 28.4C221.221 28.4 221.615 28.304 221.978 28.112C222.351 27.92 222.666 27.6213 222.922 27.216L224.458 28.112C224.127 28.752 223.642 29.248 223.002 29.6C222.373 29.9413 221.642 30.112 220.81 30.112ZM226.187 30V21.456H228.091V23.808L227.867 23.12C228.123 22.544 228.523 22.1067 229.067 21.808C229.622 21.5093 230.31 21.36 231.131 21.36V23.264C231.046 23.2427 230.966 23.232 230.891 23.232C230.816 23.2213 230.742 23.216 230.667 23.216C229.91 23.216 229.307 23.44 228.859 23.888C228.411 24.3253 228.187 24.9813 228.187 25.856V30H226.187ZM236.59 30.112C235.715 30.112 234.936 29.9253 234.254 29.552C233.571 29.168 233.032 28.6453 232.638 27.984C232.243 27.3227 232.046 26.5707 232.046 25.728C232.046 24.8747 232.243 24.1227 232.638 23.472C233.032 22.8107 233.571 22.2933 234.254 21.92C234.936 21.5467 235.715 21.36 236.59 21.36C237.475 21.36 238.259 21.5467 238.942 21.92C239.635 22.2933 240.174 22.8053 240.558 23.456C240.952 24.1067 241.15 24.864 241.15 25.728C241.15 26.5707 240.952 27.3227 240.558 27.984C240.174 28.6453 239.635 29.168 238.942 29.552C238.259 29.9253 237.475 30.112 236.59 30.112ZM236.59 28.4C237.08 28.4 237.518 28.2933 237.902 28.08C238.286 27.8667 238.584 27.5573 238.798 27.152C239.022 26.7467 239.134 26.272 239.134 25.728C239.134 25.1733 239.022 24.6987 238.798 24.304C238.584 23.8987 238.286 23.5893 237.902 23.376C237.518 23.1627 237.086 23.056 236.606 23.056C236.115 23.056 235.678 23.1627 235.294 23.376C234.92 23.5893 234.622 23.8987 234.398 24.304C234.174 24.6987 234.062 25.1733 234.062 25.728C234.062 26.272 234.174 26.7467 234.398 27.152C234.622 27.5573 234.92 27.8667 235.294 28.08C235.678 28.2933 236.11 28.4 236.59 28.4ZM245.702 30.112C244.987 30.112 244.299 30.0213 243.638 29.84C242.987 29.648 242.47 29.4187 242.086 29.152L242.854 27.632C243.238 27.8773 243.697 28.08 244.23 28.24C244.763 28.4 245.297 28.48 245.83 28.48C246.459 28.48 246.913 28.3947 247.19 28.224C247.478 28.0533 247.622 27.824 247.622 27.536C247.622 27.3013 247.526 27.1253 247.334 27.008C247.142 26.88 246.891 26.784 246.582 26.72C246.273 26.656 245.926 26.5973 245.542 26.544C245.169 26.4907 244.79 26.4213 244.406 26.336C244.033 26.24 243.691 26.1067 243.382 25.936C243.073 25.7547 242.822 25.5147 242.63 25.216C242.438 24.9173 242.342 24.5227 242.342 24.032C242.342 23.488 242.497 23.0187 242.806 22.624C243.115 22.2187 243.547 21.9093 244.102 21.696C244.667 21.472 245.334 21.36 246.102 21.36C246.678 21.36 247.259 21.424 247.846 21.552C248.433 21.68 248.918 21.8613 249.302 22.096L248.534 23.616C248.129 23.3707 247.718 23.2053 247.302 23.12C246.897 23.024 246.491 22.976 246.086 22.976C245.478 22.976 245.025 23.0667 244.726 23.248C244.438 23.4293 244.294 23.6587 244.294 23.936C244.294 24.192 244.39 24.384 244.582 24.512C244.774 24.64 245.025 24.7413 245.334 24.816C245.643 24.8907 245.985 24.9547 246.358 25.008C246.742 25.0507 247.121 25.12 247.494 25.216C247.867 25.312 248.209 25.4453 248.518 25.616C248.838 25.776 249.094 26.0053 249.286 26.304C249.478 26.6027 249.574 26.992 249.574 27.472C249.574 28.0053 249.414 28.4693 249.094 28.864C248.785 29.2587 248.342 29.568 247.766 29.792C247.19 30.0053 246.502 30.112 245.702 30.112ZM255.136 30.112C254.262 30.112 253.483 29.9253 252.8 29.552C252.118 29.168 251.579 28.6453 251.184 27.984C250.79 27.3227 250.592 26.5707 250.592 25.728C250.592 24.8747 250.79 24.1227 251.184 23.472C251.579 22.8107 252.118 22.2933 252.8 21.92C253.483 21.5467 254.262 21.36 255.136 21.36C256.022 21.36 256.806 21.5467 257.488 21.92C258.182 22.2933 258.72 22.8053 259.104 23.456C259.499 24.1067 259.696 24.864 259.696 25.728C259.696 26.5707 259.499 27.3227 259.104 27.984C258.72 28.6453 258.182 29.168 257.488 29.552C256.806 29.9253 256.022 30.112 255.136 30.112ZM255.136 28.4C255.627 28.4 256.064 28.2933 256.448 28.08C256.832 27.8667 257.131 27.5573 257.344 27.152C257.568 26.7467 257.68 26.272 257.68 25.728C257.68 25.1733 257.568 24.6987 257.344 24.304C257.131 23.8987 256.832 23.5893 256.448 23.376C256.064 23.1627 255.632 23.056 255.152 23.056C254.662 23.056 254.224 23.1627 253.84 23.376C253.467 23.5893 253.168 23.8987 252.944 24.304C252.72 24.6987 252.608 25.1733 252.608 25.728C252.608 26.272 252.72 26.7467 252.944 27.152C253.168 27.5573 253.467 27.8667 253.84 28.08C254.224 28.2933 254.656 28.4 255.136 28.4ZM261.881 30V20.976C261.881 20.08 262.142 19.3653 262.665 18.832C263.198 18.288 263.956 18.016 264.937 18.016C265.289 18.016 265.62 18.0533 265.929 18.128C266.249 18.2027 266.516 18.32 266.729 18.48L266.185 19.984C266.036 19.8667 265.865 19.7813 265.673 19.728C265.481 19.664 265.284 19.632 265.081 19.632C264.665 19.632 264.35 19.7493 264.137 19.984C263.924 20.208 263.817 20.5493 263.817 21.008V21.968L263.881 22.864V30H261.881ZM260.473 23.12V21.52H266.169V23.12H260.473ZM270.731 30.112C269.792 30.112 269.067 29.872 268.555 29.392C268.043 28.9013 267.787 28.1813 267.787 27.232V19.568H269.787V27.184C269.787 27.5893 269.888 27.904 270.091 28.128C270.304 28.352 270.598 28.464 270.971 28.464C271.419 28.464 271.792 28.3467 272.091 28.112L272.651 29.536C272.416 29.728 272.128 29.872 271.787 29.968C271.446 30.064 271.094 30.112 270.731 30.112ZM266.379 23.12V21.52H272.075V23.12H266.379Z" fill="white"/>
<path d="M40.8696 14.8695H49.5652V23.5652H40.8696V14.8695Z" fill="#F35325"/>
<path d="M50.4348 14.8695H59.1304V23.5652H50.4348V14.8695Z" fill="#81BC06"/>
<path d="M40.8696 24.4348H49.5652V33.1305H40.8696V24.4348Z" fill="#05A6F0"/>
<path d="M50.4348 24.4348H59.1304V33.1305H50.4348V24.4348Z" fill="#FFBA08"/>
</g>
<defs>
<clipPath id="clip0_204_787">
<rect width="311" height="48" fill="white"/>
</clipPath>
</defs>
</svg>
