<svg width="48" height="48" viewBox="0 0 48 48" fill="none" xmlns="http://www.w3.org/2000/svg">
<path fill-rule="evenodd" clip-rule="evenodd" d="M15 24C15 19.03 19.03 15 24 15C24.46 15 24.92 15.04 25.36 15.1C23.99 16.08 23.1 17.69 23.1 19.5C23.1 22.48 25.52 24.9 28.5 24.9C30.32 24.9 31.92 24.01 32.9 22.64C32.96 23.08 33 23.54 33 24C33 28.97 28.97 33 24 33C19.03 33 15 28.97 15 24ZM21.1 19.5C21.1 18.82 21.19 18.15 21.37 17.51C18.81 18.55 17 21.07 17 24C17 27.86 20.14 31 24 31C26.93 31 29.45 29.19 30.49 26.63C29.85 26.81 29.18 26.9 28.5 26.9C24.42 26.9 21.1 23.58 21.1 19.5Z" fill="white"/>
</svg>
